<svg xmlns='http://www.w3.org/2000/svg'>
	<symbol viewBox="0 0 48 42" id='loop'>
		<path d="M41.7 46c-.4 0-.8-.1-1-.4l-10-10c-.6-.5-.6-1.5 0-2l2.8-2.9c.6-.6 1.6-.6 2.2 0l9.9 10c.5.5.5 1.4 0 2l-2.9 2.9c-.3.3-.6.4-1 .4zm-7.1-14.7-.4.1-2.8 2.8c-.2.2-.2.6 0 .8l10 9.9h.6l3-2.9v-.7l-10-9.9a.5.5 0 0 0-.3-.1z" />
		<path d="M18.5 35a16.5 16.5 0 1 1 13-6.4.5.5 0 0 1-.8-.6 15.5 15.5 0 1 0-1.5 1.7.5.5 0 0 1 .7.7A16 16 0 0 1 18.5 35z" />
		<path d="m33.9 31 .5-.2-3-3-.6.9 2.7 2.7.4-.3z" />
		<path d="m31 33.9.4-.4-2.7-2.7-.8.6 3 3c0-.2 0-.4.2-.5z" />
	</symbol>
	<symbol id='close'>
		<line x1="4" y1="0" x2="19" y2="23" stroke="rgb(50, 69, 95)" stroke-width="5" stroke-linecap="square" />
		<line x1="19" y1="0" x2="4" y2="23" stroke="rgb(50, 69, 95)" stroke-width="5" stroke-linecap="square" />
	</symbol>
	<symbol id='close-beige'>
		<line x1="4" y1="0" x2="19" y2="23" stroke="rgb(95, 101, 81)" stroke-width="5" stroke-linecap="square" />
		<line x1="19" y1="0" x2="4" y2="23" stroke="rgb(95, 101, 81)" stroke-width="5" stroke-linecap="square" />
	</symbol>
	<symbol id='close-white'>
		<line x1="4" y1="0" x2="19" y2="23" stroke="rgb(251, 251, 245)" stroke-width="5" stroke-linecap="square" />
		<line x1="19" y1="0" x2="4" y2="23" stroke="rgb(251, 251, 245)" stroke-width="5" stroke-linecap="square" />
	</symbol>
		<symbol id='small-close'>
		<line x1="1" y1="0" x2="7" y2="8" stroke="rgb(50, 69, 95)" stroke-width="2" stroke-linecap="square" />
		<line x1="7" y1="0" x2="1" y2="8" stroke="rgb(50, 69, 95)" stroke-width="2" stroke-linecap="square" />
	</symbol>
		<symbol id='small-close-beige'>
		<line x1="1" y1="0" x2="7" y2="8" stroke="rgb(95, 101, 81)" stroke-width="2" stroke-linecap="square" />
		<line x1="7" y1="0" x2="1" y2="8" stroke="rgb(95, 101, 81)" stroke-width="2" stroke-linecap="square" />
	</symbol>
	<symbol viewBox="0 0 64 64" id='mountains'>
		<path d="m63.9 58.3-18-31c-.2-.3-.6-.6-1-.6s-.8.2-1 .6l-8 13.9-4.8-8.3-.1-.2-7-12.3c-.4-.7-1.5-.7-1.9 0l-7 12.2-.3.4L.1 58.3c-.2.3-.2.8 0 1.1s.6.6 1 .6h61.8c.4 0 .8-.2 1-.6a2 2 0 0 0 0-1.1zM45 30.1l3.7 6.4-1.2 1.2-1.9-1.9c-.4-.4-1.1-.4-1.6 0l-1.8 1.8-1-1 3.8-6.5zm-22-7 5.8 10-2.2 2.2-3.1-3.1c-.4-.4-1.1-.4-1.6 0L19.1 35l-1.9-1.9 5.8-10zm-6.9 12 2.3 2.3c.4.4 1.1.4 1.6 0l2.8-2.8 3.1 3.1c.2.2.5.3.8.3s.6-.1.8-.3l2.6-2.6L43 57.5l.2.3H3l13.1-22.7zm29.5 22.7-8.3-14.4 2.8-4.9 1.4 1.4c.4.4 1.1.4 1.6 0l1.8-1.8 1.9 1.9c.2.2.5.3.8.3s.6-.1.8-.3l1.5-1.5L61 57.8H45.6zm-6.5-41.2c2 0 3.6-1.6 3.6-3.6s-1.6-3.6-3.6-3.6-3.6 1.6-3.6 3.6 1.6 3.6 3.6 3.6zm0-5c.8 0 1.4.6 1.4 1.4s-.6 1.4-1.4 1.4-1.4-.6-1.4-1.4.7-1.4 1.4-1.4zm0-3.5c.6 0 1.1-.5 1.1-1.1V5.1c0-.6-.5-1.1-1.1-1.1S38 4.5 38 5.1V7c0 .6.5 1.1 1.1 1.1zM38 19v1.9c0 .6.5 1.1 1.1 1.1s1.1-.5 1.1-1.1V19c0-.6-.5-1.1-1.1-1.1S38 18.4 38 19zm6-6c0 .6.5 1.1 1.1 1.1H47c.6 0 1.1-.5 1.1-1.1 0-.6-.5-1.1-1.1-1.1h-1.9c-.6 0-1.1.5-1.1 1.1zm-12.8 1.1h1.9c.6 0 1.1-.5 1.1-1.1 0-.6-.5-1.1-1.1-1.1h-1.9c-.6 0-1.1.5-1.1 1.1 0 .6.5 1.1 1.1 1.1zm12.2-4.2c.3 0 .6-.1.8-.3l1.4-1.4c.4-.4.4-1.1 0-1.6-.4-.4-1.1-.4-1.6 0L42.6 8c-.4.4-.4 1.1 0 1.6.2.2.5.3.8.3zm-9.3 6.6-1.4 1.4c-.4.4-.4 1.1 0 1.6.2.2.5.3.8.3.3 0 .6-.1.8-.3l1.4-1.4c.4-.4.4-1.1 0-1.6-.5-.5-1.2-.5-1.6 0zm8.5 0c-.4.4-.4 1.1 0 1.6l1.4 1.4c.2.2.5.3.8.3.3 0 .6-.1.8-.3.4-.4.4-1.1 0-1.6l-1.4-1.4c-.5-.5-1.2-.5-1.6 0zm-8.5-6.9c.2.2.5.3.8.3.3 0 .6-.1.8-.3.4-.4.4-1.1 0-1.6l-1.4-1.4c-.4-.4-1.1-.4-1.6 0-.4.4-.4 1.1 0 1.6l1.4 1.4z" />
	</symbol>
		<symbol viewBox="0 0 512 512" id='backpack'>
		<path d="M190.1 75.3a59.5 59.5 0 0 1 57.3-58.9c8.1-.2 16.7-.7 24.7.7a59 59 0 0 1 49.7 58.3c.1 9.6 15.1 9.7 15 0a74.7 74.7 0 0 0-54.1-71.2c-11-3.1-22.3-2.8-33.6-2.7a75.6 75.6 0 0 0-49.6 19A75 75 0 0 0 175 75.4c0 9.6 15 9.6 15.1-.1z" />
		<path d="M220.1 67.6c2.3-8 7.5-14.7 14.8-18.7a37.3 37.3 0 0 1 18.6-3.5c6.1 0 12.4-.4 18.3 1.4 9.9 3 17.1 11.1 20 20.9 2.7 9.2 17.2 5.3 14.5-4a45.5 45.5 0 0 0-25.1-29.2c-9-4-18.1-4-27.7-4-9.4 0-18.4 1.1-26.8 5.9a45.9 45.9 0 0 0-21.1 27.3c-2.6 9.2 11.8 13.1 14.5 3.9zm-79.9 428H38.9l7.5 7.5V397.9c0-15.2 7.2-29.3 21.7-35.4 7.3-3.1 14.9-2.7 22.7-2.7h20.5c9.7 0 9.7-15 0-15-13.1 0-27.3-1.5-40.2 1.2a51.2 51.2 0 0 0-39.8 49.4c-.3 25.4 0 50.8 0 76.2v31.5c0 4.1 3.4 7.5 7.5 7.5h101.3c9.7 0 9.7-15 .1-15zm231.6 15h101.3c4.1 0 7.5-3.4 7.5-7.5v-74.8c0-10.7.1-21.4 0-32.2a51.2 51.2 0 0 0-31.5-47.5c-14.8-6.1-32.7-3.8-48.4-3.8-9.7 0-9.7 15 0 15h17.6c5.8 0 12.1-.6 17.9.5a36.2 36.2 0 0 1 29.4 36v106.8l7.5-7.5H371.8c-9.6 0-9.6 15 0 15z" />
		<path d="M393.3 259.4v243.7l7.5-7.5H111.2l7.5 7.5V259.4c0-9.7-15-9.7-15 0v243.7c0 4.1 3.4 7.5 7.5 7.5h289.6c4.1 0 7.5-3.4 7.5-7.5V259.4c0-9.7-15-9.7-15 0z" />
		<path d="M182.6 266.9h146.7c9.7 0 9.7-15 0-15H182.6c-9.6 0-9.6 15 0 15z" />
		<path d="M358.3 266.9h40.4a37.2 37.2 0 0 0 38.5-36.8c.4-27.5 0-55 0-82.5V94.7a37 37 0 0 0-15.7-30 41.4 41.4 0 0 0-24.7-6.5h-282c-9.3 0-18.1 1.7-25.7 7.5a36.7 36.7 0 0 0-14.3 29c-.2 9.3 0 18.5 0 27.8v107.6a36.7 36.7 0 0 0 13.1 28.2c13.8 11.3 32.9 8.5 49.5 8.5h16.3c9.7 0 9.7-15 0-15h-39.1c-7.4 0-14.2-1.4-19.4-7.2-4-4.5-5.4-10.1-5.4-15.9v-134c.2-9 5.4-17.3 14-20.4 5.6-2 12.2-1.3 18.1-1.3h268.9c5.7 0 12.2-.7 17.6 1.4a21.8 21.8 0 0 1 13.7 20.3c.2 8.8 0 17.7 0 26.5v95.9c0 9.9 1.4 20.8-6.3 28.5-5.3 5.3-11.8 6.3-18.8 6.3h-38.8c-9.5 0-9.5 15 .1 15zm-16.7 132.2v104l7.5-7.5H162.8l7.5 7.5c0-34.5-.3-69 0-103.5a44.1 44.1 0 0 1 17.4-35 52.2 52.2 0 0 1 32.6-10.1H283c10.2 0 20.1-.3 29.8 3.6a45 45 0 0 1 28.8 41c.1 9.6 15.1 9.7 15 0a59.7 59.7 0 0 0-24.3-47.1 66.3 66.3 0 0 0-40.1-12.5h-65.7c-10.6 0-21 .2-31 4a61.8 61.8 0 0 0-37 37.3c-3 8.5-3 17.2-3 26v96.3c0 4.1 3.4 7.5 7.5 7.5h186.3c4.1 0 7.5-3.4 7.5-7.5v-104c-.2-9.6-15.2-9.6-15.2 0z" />
		<path d="M153.7 73.1h29l-7.5-7.5v213.2c0 2.7.5 6.1-.9 8.5a7 7 0 0 1-12.6-.6c-.6-1.3-.5-2.5-.5-3.8v-123c0-30.9.6-61.8 0-92.7v-1.6c0-9.7-15-9.7-15 0v202.9c0 12.3-1.9 26.7 10.5 34.3 14.8 9 32.8-2.1 33.4-18.8V164.8c0-32.5.7-65.1 0-97.5v-1.7c0-4.1-3.4-7.5-7.5-7.5h-29c-9.6 0-9.6 15 .1 15zm175.7 0h29l-7.5-7.5v213.2c0 2.7.5 6.1-.9 8.5a7 7 0 0 1-12.6-.6c-.6-1.3-.5-2.5-.5-3.8v-123c0-30.9.6-61.8 0-92.7v-1.6c0-9.7-15-9.7-15 0v202.9c0 12.3-1.9 26.7 10.5 34.3 14.8 9 32.8-2.1 33.4-18.8V164.8c0-32.5.7-65.1 0-97.5v-1.7c0-4.1-3.4-7.5-7.5-7.5h-29c-9.6 0-9.6 15 .1 15zm-50.2 186.3c0 6.3.9 13.3-.8 19.4-2.7 9.9-12 17-22.3 17-10 0-19.3-6.7-22.2-16.4-1.9-6.3-1-13.5-1-20.1 0-9.7-15-9.7-15 0 0 9.9-.7 19.7 3.4 29 6 13.5 20 22.5 34.8 22.4 14.5 0 28.3-8.7 34.4-21.9 4.4-9.4 3.7-19.5 3.7-29.6 0-9.5-15-9.5-15 .2zM162.9 421.1h186.4l-7.5-7.5v29l7.5-7.5H162.9l7.5 7.5v-29c0-9.7-15-9.7-15 0v29c0 4.1 3.4 7.5 7.5 7.5h186.4c4.1 0 7.5-3.4 7.5-7.5v-29c0-4.1-3.4-7.5-7.5-7.5H162.9c-9.7 0-9.7 15 0 15z" />
	</symbol>
	<symbol viewBox="0 0 512 512" id='hiking'>
		<path d="m352.532 209.829h70.936c15.652 0 28.387-12.734 28.387-28.387 0-15.645-12.721-28.374-28.362-28.386-3.368-16.71-18.215-29.027-35.492-29.027-17.283 0-32.131 12.317-35.495 29.027-15.641.014-28.36 12.743-28.36 28.386 0 15.652 12.734 28.387 28.386 28.387zm0-41.773h2.326c6.109 0 11.319-4.571 12.118-10.633 1.381-10.487 10.419-18.395 21.023-18.395 10.6 0 19.637 7.91 21.022 18.398.8 6.06 6.01 10.629 12.118 10.629h2.328c7.381 0 13.387 6.005 13.387 13.386s-6.005 13.387-13.387 13.387h-70.936c-7.381 0-13.387-6.005-13.387-13.387s6.007-13.385 13.388-13.385zm125.162 232.84c0-4.142-3.358-7.5-7.5-7.5s-7.5 3.358-7.5 7.5 3.358 7.5 7.5 7.5 7.5-3.357 7.5-7.5zm-89.694-296.067h90c18.748 0 34-15.252 34-34s-15.252-34-34-34h-1.651c-3.431-21.088-21.837-36.829-43.349-36.829-21.519 0-39.927 15.741-43.352 36.829h-1.648c-18.748 0-34 15.252-34 34s15.252 34 34 34zm0-53h2.951c6.745 0 12.496-5.046 13.376-11.738 1.885-14.304 14.212-25.091 28.673-25.091 14.456 0 26.781 10.789 28.67 25.095.884 6.689 6.634 11.733 13.376 11.733h2.954c10.477 0 19 8.523 19 19s-8.523 19-19 19h-90c-10.477 0-19-8.523-19-19s8.523-18.999 19-18.999zm-352.893 82.998c4.142 0 7.5-3.358 7.5-7.5s-3.358-7.5-7.5-7.5-7.5 3.358-7.5 7.5 3.358 7.5 7.5 7.5zm466.154 137.407c-6.32-1.348-12.582 1.83-15.222 7.731l-32.541 72.756c-1.886 4.217-5.734 7.176-10.294 7.916l-54.404 8.827c-8.133 1.319-15.311 6.079-19.692 13.057l-13.425 21.379c-2.203 3.508-1.145 8.137 2.363 10.34 3.508 2.204 8.138 1.145 10.34-2.363l13.425-21.379c2.09-3.328 5.513-5.598 9.392-6.227l54.404-8.827c9.562-1.552 17.631-7.757 21.584-16.598l29.809-66.648v202.302c0 1.378-1.122 2.5-2.5 2.5h-283.399l5.38-10.686c1.468-2.915 4.403-4.723 7.653-4.723h.026l82.843.374c10.877 0 20.825-5.5 26.609-14.712l16.192-25.787c2.203-3.508 1.145-8.137-2.363-10.34-3.508-2.204-8.137-1.145-10.34 2.363l-16.192 25.787c-3.023 4.814-8.222 7.688-13.873 7.688l-82.82-.374h-.072c-8.962 0-17.028 4.967-21.061 12.977l-8.776 17.433h-10.604v-6.382c0-18.582-14.413-33.914-32.818-35.747.178-1.051 28.411-148.028 28.457-149.009l2.767-58.891 7.072 4.151c5.593 3.284 11.803 4.896 17.978 4.896 8.352 0 16.64-2.948 23.254-8.696l46.969-40.814 17.36 186.678-13.727 1.785c-4.108.534-7.004 4.297-6.471 8.404.537 4.133 4.361 7.003 8.404 6.471l13.184-1.714 1.69 18.172c.381 4.145 4.089 7.152 8.162 6.773 4.125-.384 7.157-4.038 6.773-8.162l-1.741-18.718 13.038-1.695c4.108-.534 7.004-4.297 6.471-8.404-.534-4.108-4.3-7.007-8.404-6.471l-12.494 1.625-18.413-198.004c2.471-3.809 3.838-8.278 3.856-12.906.027-6.889-2.925-13.46-8.1-18.028-8.627-7.617-21.505-8.048-30.62-1.025l-52.231 40.241-19.351-10.97.625-13.369c.005-.117.008-.233.008-.35 0-9.935-3.572-19.5-9.843-27.005 7.484-6.784 12.193-16.575 12.193-27.442l.017-41.154 45.113-.019c13.84 0 25.1-11.224 25.1-25.04 0-13.78-11.255-24.99-25.093-24.99l-42.779.018c-2.672-4.305-5.852-8.338-9.536-12.005-12.443-12.386-28.98-19.204-46.575-19.204h-.029c-36.349.016-65.934 29.482-65.95 65.686-.002 4.174 1.628 8.097 4.589 11.044 2.095 2.086 4.684 3.491 7.5 4.139l-.008 24.828c.028 15.001 6.034 28.946 17.021 39.236-.886.794-1.733 1.629-2.544 2.497h-30.713c3.996-5.699 6.351-12.629 6.351-20.103 0-19.358-15.749-35.107-35.107-35.107s-35.108 15.749-35.108 35.107c0 9.855 4.088 18.77 10.65 25.152-6.452 4.744-10.65 12.385-10.65 20.991v89.2c0 14.353 11.677 26.03 26.03 26.03h54.095c1.328 6.498 2.485 11.701 4.115 17.994l10.581 155.75v34.556h-87.321c-4.142 0-7.5 3.358-7.5 7.5s3.358 7.5 7.5 7.5h487c9.649 0 17.5-7.851 17.5-17.5v-208.994c0-6.465-4.416-11.923-10.739-13.272zm-268.371-226.044c5.563 0 10.09 4.481 10.09 10.01 0 5.525-4.531 10.02-10.104 10.02l-33.001.016v-.594c.003-6.689-.998-13.223-2.92-19.437zm-53.114 158.782 20.018 11.348c3.396 1.925 7.588 1.63 10.678-.751l55.032-42.398c3.435-2.646 8.287-2.484 11.539.387 1.962 1.732 3.037 4.12 3.027 6.724-.01 2.601-1.102 4.976-3.073 6.689l-56.422 49.029c-6.638 5.769-16.203 6.648-23.8 2.187l-25.996-15.26zm-29.066-60.532h-16.907c-10.683-.081-19.167-3.147-27.353-11.331-3.671-3.67-6.514-7.946-8.437-12.603l20.977-11.146c6.686-3.552 10.841-10.451 10.844-18.003l.004-10.094 42.928-.019-.017 41.145c.001 12.152-9.888 22.044-22.039 22.051zm-67.52-78.341c-.171-.171-.171-.349-.171-.407.012-27.94 22.871-50.68 50.957-50.692h.022c13.601 0 26.381 5.268 35.991 14.833 3.598 3.582 6.589 7.605 8.924 11.949.097.216.204.427.32.631 4.094 7.181 5.715 15.37 5.642 23.827 0 .001-101.561-.018-101.685-.141zm11.91 38.97.007-23.79 19.731-.009-.004 10.082c-.001 1.994-1.105 3.819-2.882 4.763zm-59.993 2.151c11.087 0 20.107 9.02 20.107 20.107 0 11.119-9.083 20.151-20.194 20.103-11.046-.047-20.02-9.045-20.02-20.103 0-11.087 9.02-20.107 20.107-20.107zm-20.107 66.25c0-6.087 4.948-11.04 11.03-11.04h8.904c.058 0 .115.004.173.004s.115-.004.173-.004h50.436c-1.575 4.931-2.685 9.949-3.818 15h-66.898zm75.546 77.158c-.208-4.136-3.712-7.314-7.868-7.114-4.137.208-7.322 3.73-7.114 7.868.375 7.455 1.087 14.904 2.092 22.318h-51.626c-6.082 0-11.03-4.948-11.03-11.03v-70.24h63.989c-.461 2.779-.886 5.562-1.262 8.346-.627 4.646-1.144 9.384-1.535 14.082-.344 4.127 2.724 7.752 6.852 8.096 4.069.339 7.751-2.703 8.097-6.852.37-4.443.858-8.924 1.452-13.32 1.572-11.658 3.947-23.307 7.061-34.63 1.614-5.869 5.249-10.903 10.355-14.26 7.307 3.621 15.399 5.548 23.788 5.548h16.918c4.053-.002 7.952-.668 11.604-1.879 5.133 5.025 8.038 11.795 8.081 19.114l-.261 5.591-14.129-8.01c-3.603-2.043-8.18-.778-10.223 2.826s-.778 8.181 2.826 10.223l18.098 10.26-8.895 17.751-19.057-11.188c-3.571-2.098-8.168-.902-10.265 2.671-2.097 3.572-.901 8.168 2.671 10.265l36.332 21.328-2.801 59.614h-67.19c-3.818-15.512-6.158-31.44-6.96-47.378zm9.158 62.382h63.071l-27.127 141.677h-26.318zm68.999 183.99h-58.882v-27.313h37.357c11.869 0 21.525 9.39 21.525 20.931zm218.991-67.5c0-4.142-3.358-7.5-7.5-7.5s-7.5 3.358-7.5 7.5 3.358 7.5 7.5 7.5 7.5-3.358 7.5-7.5zm75 45c0-4.142-3.358-7.5-7.5-7.5s-7.5 3.358-7.5 7.5 3.358 7.5 7.5 7.5 7.5-3.358 7.5-7.5z">
		</path>
	</symbol>
</svg>