<svg xmlns="http://www.w3.org/2000/svg" viewBox="0 0 512 512">
  <path d="M190.1 75.3a59.5 59.5 0 0 1 57.3-58.9c8.1-.2 16.7-.7 24.7.7a59 59 0 0 1 49.7 58.3c.1 9.6 15.1 9.7 15 0a74.7 74.7 0 0 0-54.1-71.2c-11-3.1-22.3-2.8-33.6-2.7a75.6 75.6 0 0 0-49.6 19A75 75 0 0 0 175 75.4c0 9.6 15 9.6 15.1-.1z"/>
  <path d="M220.1 67.6c2.3-8 7.5-14.7 14.8-18.7a37.3 37.3 0 0 1 18.6-3.5c6.1 0 12.4-.4 18.3 1.4 9.9 3 17.1 11.1 20 20.9 2.7 9.2 17.2 5.3 14.5-4a45.5 45.5 0 0 0-25.1-29.2c-9-4-18.1-4-27.7-4-9.4 0-18.4 1.1-26.8 5.9a45.9 45.9 0 0 0-21.1 27.3c-2.6 9.2 11.8 13.1 14.5 3.9zm-79.9 428H38.9l7.5 7.5V397.9c0-15.2 7.2-29.3 21.7-35.4 7.3-3.1 14.9-2.7 22.7-2.7h20.5c9.7 0 9.7-15 0-15-13.1 0-27.3-1.5-40.2 1.2a51.2 51.2 0 0 0-39.8 49.4c-.3 25.4 0 50.8 0 76.2v31.5c0 4.1 3.4 7.5 7.5 7.5h101.3c9.7 0 9.7-15 .1-15zm231.6 15h101.3c4.1 0 7.5-3.4 7.5-7.5v-74.8c0-10.7.1-21.4 0-32.2a51.2 51.2 0 0 0-31.5-47.5c-14.8-6.1-32.7-3.8-48.4-3.8-9.7 0-9.7 15 0 15h17.6c5.8 0 12.1-.6 17.9.5a36.2 36.2 0 0 1 29.4 36v106.8l7.5-7.5H371.8c-9.6 0-9.6 15 0 15z"/>
  <path d="M393.3 259.4v243.7l7.5-7.5H111.2l7.5 7.5V259.4c0-9.7-15-9.7-15 0v243.7c0 4.1 3.4 7.5 7.5 7.5h289.6c4.1 0 7.5-3.4 7.5-7.5V259.4c0-9.7-15-9.7-15 0z"/>
  <path d="M182.6 266.9h146.7c9.7 0 9.7-15 0-15H182.6c-9.6 0-9.6 15 0 15z"/>
  <path d="M358.3 266.9h40.4a37.2 37.2 0 0 0 38.5-36.8c.4-27.5 0-55 0-82.5V94.7a37 37 0 0 0-15.7-30 41.4 41.4 0 0 0-24.7-6.5h-282c-9.3 0-18.1 1.7-25.7 7.5a36.7 36.7 0 0 0-14.3 29c-.2 9.3 0 18.5 0 27.8v107.6a36.7 36.7 0 0 0 13.1 28.2c13.8 11.3 32.9 8.5 49.5 8.5h16.3c9.7 0 9.7-15 0-15h-39.1c-7.4 0-14.2-1.4-19.4-7.2-4-4.5-5.4-10.1-5.4-15.9v-134c.2-9 5.4-17.3 14-20.4 5.6-2 12.2-1.3 18.1-1.3h268.9c5.7 0 12.2-.7 17.6 1.4a21.8 21.8 0 0 1 13.7 20.3c.2 8.8 0 17.7 0 26.5v95.9c0 9.9 1.4 20.8-6.3 28.5-5.3 5.3-11.8 6.3-18.8 6.3h-38.8c-9.5 0-9.5 15 .1 15zm-16.7 132.2v104l7.5-7.5H162.8l7.5 7.5c0-34.5-.3-69 0-103.5a44.1 44.1 0 0 1 17.4-35 52.2 52.2 0 0 1 32.6-10.1H283c10.2 0 20.1-.3 29.8 3.6a45 45 0 0 1 28.8 41c.1 9.6 15.1 9.7 15 0a59.7 59.7 0 0 0-24.3-47.1 66.3 66.3 0 0 0-40.1-12.5h-65.7c-10.6 0-21 .2-31 4a61.8 61.8 0 0 0-37 37.3c-3 8.5-3 17.2-3 26v96.3c0 4.1 3.4 7.5 7.5 7.5h186.3c4.1 0 7.5-3.4 7.5-7.5v-104c-.2-9.6-15.2-9.6-15.2 0z"/>
  <path d="M153.7 73.1h29l-7.5-7.5v213.2c0 2.7.5 6.1-.9 8.5a7 7 0 0 1-12.6-.6c-.6-1.3-.5-2.5-.5-3.8v-123c0-30.9.6-61.8 0-92.7v-1.6c0-9.7-15-9.7-15 0v202.9c0 12.3-1.9 26.7 10.5 34.3 14.8 9 32.8-2.1 33.4-18.8V164.8c0-32.5.7-65.1 0-97.5v-1.7c0-4.1-3.4-7.5-7.5-7.5h-29c-9.6 0-9.6 15 .1 15zm175.7 0h29l-7.5-7.5v213.2c0 2.7.5 6.1-.9 8.5a7 7 0 0 1-12.6-.6c-.6-1.3-.5-2.5-.5-3.8v-123c0-30.9.6-61.8 0-92.7v-1.6c0-9.7-15-9.7-15 0v202.9c0 12.3-1.9 26.7 10.5 34.3 14.8 9 32.8-2.1 33.4-18.8V164.8c0-32.5.7-65.1 0-97.5v-1.7c0-4.1-3.4-7.5-7.5-7.5h-29c-9.6 0-9.6 15 .1 15zm-50.2 186.3c0 6.3.9 13.3-.8 19.4-2.7 9.9-12 17-22.3 17-10 0-19.3-6.7-22.2-16.4-1.9-6.3-1-13.5-1-20.1 0-9.7-15-9.7-15 0 0 9.9-.7 19.7 3.4 29 6 13.5 20 22.5 34.8 22.4 14.5 0 28.3-8.7 34.4-21.9 4.4-9.4 3.7-19.5 3.7-29.6 0-9.5-15-9.5-15 .2zM162.9 421.1h186.4l-7.5-7.5v29l7.5-7.5H162.9l7.5 7.5v-29c0-9.7-15-9.7-15 0v29c0 4.1 3.4 7.5 7.5 7.5h186.4c4.1 0 7.5-3.4 7.5-7.5v-29c0-4.1-3.4-7.5-7.5-7.5H162.9c-9.7 0-9.7 15 0 15z"/>
</svg>