<svg xmlns="http://www.w3.org/2000/svg" viewBox="0 0 48 48">
  <path d="M41.7 46c-.4 0-.8-.1-1-.4l-10-10c-.6-.5-.6-1.5 0-2l2.8-2.9c.6-.6 1.6-.6 2.2 0l9.9 10c.5.5.5 1.4 0 2l-2.9 2.9c-.3.3-.6.4-1 .4zm-7.1-14.7-.4.1-2.8 2.8c-.2.2-.2.6 0 .8l10 9.9h.6l3-2.9v-.7l-10-9.9a.5.5 0 0 0-.3-.1z" />
  <path d="M18.5 35a16.5 16.5 0 1 1 13-6.4.5.5 0 0 1-.8-.6 15.5 15.5 0 1 0-1.5 1.7.5.5 0 0 1 .7.7A16 16 0 0 1 18.5 35z" />
    <path d="m33.9 31 .5-.2-3-3-.6.9 2.7 2.7.4-.3z"/>
    <path d="m31 33.9.4-.4-2.7-2.7-.8.6 3 3c0-.2 0-.4.2-.5z"/>
</svg>
